<svg width="240" height="80" viewBox="0 0 240 80" fill="none" xmlns="http://www.w3.org/2000/svg">
<rect x="0.5" y="0.5" width="239" height="79" rx="6.5" fill="#0C0D10"/>
<rect x="0.5" y="0.5" width="239" height="79" rx="6.5" stroke="#A6A6A6"/>
<path d="M163.052 38.4027V42.9847H160.18V45.9896H163.052V56.1996C163.052 59.6859 164.629 61.0804 168.597 61.0804C169.294 61.0804 169.958 60.9974 170.539 60.8978V57.9261C170.041 57.9759 169.726 58.0091 169.178 58.0091C167.401 58.0091 166.621 57.1791 166.621 55.2865V45.9896H170.539V42.9847H166.621V38.4027H163.052Z" fill="white"/>
<path d="M180.647 61.3295C185.926 61.3295 189.163 57.7933 189.163 51.933C189.163 46.1058 185.91 42.5531 180.647 42.5531C175.368 42.5531 172.114 46.1058 172.114 51.933C172.114 57.7933 175.351 61.3295 180.647 61.3295ZM180.647 58.1586C177.542 58.1586 175.799 55.8841 175.799 51.933C175.799 48.015 177.542 45.724 180.647 45.724C183.735 45.724 185.495 48.015 185.495 51.933C185.495 55.8675 183.735 58.1586 180.647 58.1586Z" fill="white"/>
<path d="M191.933 60.9808H195.503V50.306C195.503 47.766 197.412 46.056 200.118 46.056C200.749 46.056 201.811 46.1722 202.11 46.2718V42.7523C201.728 42.6527 201.048 42.6029 200.516 42.6029C198.159 42.6029 196.15 43.8978 195.635 45.6742H195.37V42.9017H191.933V60.9808Z" fill="white"/>
<path d="M210.973 45.5912C213.612 45.5912 215.339 47.4339 215.422 50.2728H206.291C206.49 47.4505 208.333 45.5912 210.973 45.5912ZM215.405 56.1C214.741 57.5111 213.264 58.2914 211.105 58.2914C208.25 58.2914 206.407 56.2826 206.291 53.1117V52.9125H219.058V51.6673C219.058 45.9896 216.019 42.5531 210.989 42.5531C205.893 42.5531 202.655 46.222 202.655 51.9994C202.655 57.7767 205.826 61.3295 211.006 61.3295C215.14 61.3295 218.028 59.3373 218.842 56.1H215.405Z" fill="white"/>
<path d="M139.645 54.3045C139.92 58.7439 143.62 61.5831 149.126 61.5831C155.011 61.5831 158.693 58.6063 158.693 53.8571C158.693 50.1232 156.594 48.0583 151.5 46.8711L148.764 46.2C145.529 45.4429 144.222 44.4277 144.222 42.6553C144.222 40.4184 146.252 38.9558 149.298 38.9558C152.189 38.9558 154.185 40.384 154.546 42.6725H158.297C158.073 38.4912 154.391 35.5488 149.349 35.5488C143.929 35.5488 140.316 38.4912 140.316 42.9134C140.316 46.5613 142.363 48.7294 146.854 49.779L150.055 50.5534C153.341 51.3277 154.787 52.4633 154.787 54.3561C154.787 56.5586 152.516 58.1589 149.418 58.1589C146.097 58.1589 143.792 56.6619 143.465 54.3045H139.645Z" fill="white"/>
<path d="M102.67 42.6029C100.213 42.6029 98.088 43.8314 96.9923 45.89H96.7267V42.9017H93.2901V66.9906H96.8595V58.2416H97.1417C98.088 60.1507 100.13 61.2796 102.703 61.2796C107.269 61.2796 110.174 57.6771 110.174 51.933C110.174 46.1888 107.269 42.6029 102.67 42.6029ZM101.657 58.0755C98.669 58.0755 96.7931 55.7181 96.7931 51.9496C96.7931 48.1644 98.669 45.807 101.674 45.807C104.695 45.807 106.505 48.1146 106.505 51.933C106.505 55.7679 104.695 58.0755 101.657 58.0755Z" fill="white"/>
<path d="M122.664 42.6029C120.207 42.6029 118.082 43.8314 116.986 45.89H116.72V42.9017H113.284V66.9906H116.853V58.2416H117.135C118.082 60.1507 120.124 61.2796 122.697 61.2796C127.262 61.2796 130.168 57.6771 130.168 51.933C130.168 46.1888 127.262 42.6029 122.664 42.6029ZM121.651 58.0755C118.663 58.0755 116.787 55.7181 116.787 51.9496C116.787 48.1644 118.663 45.807 121.668 45.807C124.689 45.807 126.499 48.1146 126.499 51.933C126.499 55.7679 124.689 58.0755 121.651 58.0755Z" fill="white"/>
<path d="M86.8861 60.9808H90.9814L82.0165 36.1511H77.8696L68.9048 60.9808H72.8624L75.1509 54.3905H84.6148L86.8861 60.9808ZM79.7452 40.6593H80.0377L83.634 51.1556H76.1317L79.7452 40.6593Z" fill="white"/>
<path d="M71.3022 17.4214V29.3994H75.627C79.1963 29.3994 81.2632 27.1997 81.2632 23.373C81.2632 19.6045 79.1797 17.4214 75.627 17.4214H71.3022ZM73.1616 19.1147H75.4194C77.9014 19.1147 79.3706 20.6919 79.3706 23.3979C79.3706 26.1455 77.9263 27.7061 75.4194 27.7061H73.1616V19.1147Z" fill="white"/>
<path d="M87.5934 29.5737C90.233 29.5737 91.8517 27.8057 91.8517 24.8755C91.8517 21.9619 90.2247 20.1855 87.5934 20.1855C84.9537 20.1855 83.3268 21.9619 83.3268 24.8755C83.3268 27.8057 84.9454 29.5737 87.5934 29.5737ZM87.5934 27.9883C86.0411 27.9883 85.1695 26.8511 85.1695 24.8755C85.1695 22.9165 86.0411 21.771 87.5934 21.771C89.1373 21.771 90.0172 22.9165 90.0172 24.8755C90.0172 26.8428 89.1373 27.9883 87.5934 27.9883Z" fill="white"/>
<path d="M105.636 20.3599H103.851L102.241 27.2578H102.1L100.24 20.3599H98.5305L96.6711 27.2578H96.5383L94.9196 20.3599H93.1101L95.6003 29.3994H97.4348L99.2941 22.7422H99.4353L101.303 29.3994H103.154L105.636 20.3599Z" fill="white"/>
<path d="M107.691 29.3994H109.476V24.1118C109.476 22.7007 110.314 21.8208 111.634 21.8208C112.954 21.8208 113.585 22.543 113.585 23.9956V29.3994H115.369V23.5474C115.369 21.3975 114.257 20.1855 112.24 20.1855C110.879 20.1855 109.982 20.7915 109.542 21.7959H109.409V20.3599H107.691V29.3994Z" fill="white"/>
<path d="M118.18 29.3994H119.965V16.832H118.18V29.3994Z" fill="white"/>
<path d="M126.677 29.5737C129.316 29.5737 130.935 27.8057 130.935 24.8755C130.935 21.9619 129.308 20.1855 126.677 20.1855C124.037 20.1855 122.41 21.9619 122.41 24.8755C122.41 27.8057 124.029 29.5737 126.677 29.5737ZM126.677 27.9883C125.125 27.9883 124.253 26.8511 124.253 24.8755C124.253 22.9165 125.125 21.771 126.677 21.771C128.221 21.771 129.101 22.9165 129.101 24.8755C129.101 26.8428 128.221 27.9883 126.677 27.9883Z" fill="white"/>
<path d="M136.253 28.0464C135.281 28.0464 134.576 27.5732 134.576 26.7598C134.576 25.9629 135.14 25.5396 136.385 25.4565L138.593 25.3154V26.0708C138.593 27.1914 137.597 28.0464 136.253 28.0464ZM135.796 29.5488C136.983 29.5488 137.971 29.0342 138.51 28.1294H138.651V29.3994H140.37V23.2236C140.37 21.3145 139.091 20.1855 136.825 20.1855C134.775 20.1855 133.314 21.1816 133.131 22.7339H134.858C135.057 22.0947 135.746 21.7295 136.742 21.7295C137.962 21.7295 138.593 22.269 138.593 23.2236V24.0039L136.145 24.145C133.995 24.2778 132.783 25.2158 132.783 26.8428C132.783 28.4946 134.053 29.5488 135.796 29.5488Z" fill="white"/>
<path d="M146.426 29.5488C147.671 29.5488 148.725 28.9595 149.265 27.9717H149.406V29.3994H151.116V16.832H149.331V21.7959H149.198C148.709 20.7998 147.663 20.2104 146.426 20.2104C144.143 20.2104 142.674 22.02 142.674 24.8755C142.674 27.7393 144.127 29.5488 146.426 29.5488ZM146.932 21.8125C148.426 21.8125 149.364 22.9995 149.364 24.8838C149.364 26.7764 148.435 27.9468 146.932 27.9468C145.422 27.9468 144.517 26.793 144.517 24.8755C144.517 22.9746 145.43 21.8125 146.932 21.8125Z" fill="white"/>
<path d="M162.689 29.5737C165.329 29.5737 166.947 27.8057 166.947 24.8755C166.947 21.9619 165.32 20.1855 162.689 20.1855C160.049 20.1855 158.422 21.9619 158.422 24.8755C158.422 27.8057 160.041 29.5737 162.689 29.5737ZM162.689 27.9883C161.137 27.9883 160.265 26.8511 160.265 24.8755C160.265 22.9165 161.137 21.771 162.689 21.771C164.233 21.771 165.113 22.9165 165.113 24.8755C165.113 26.8428 164.233 27.9883 162.689 27.9883Z" fill="white"/>
<path d="M169.31 29.3994H171.094V24.1118C171.094 22.7007 171.933 21.8208 173.252 21.8208C174.572 21.8208 175.203 22.543 175.203 23.9956V29.3994H176.988V23.5474C176.988 21.3975 175.875 20.1855 173.858 20.1855C172.497 20.1855 171.601 20.7915 171.161 21.7959H171.028V20.3599H169.31V29.3994Z" fill="white"/>
<path d="M185.207 18.1104V20.4014H183.771V21.9038H185.207V27.0088C185.207 28.752 185.996 29.4492 187.98 29.4492C188.328 29.4492 188.66 29.4077 188.951 29.3579V27.8721C188.702 27.897 188.544 27.9136 188.27 27.9136C187.382 27.9136 186.992 27.4985 186.992 26.5522V21.9038H188.951V20.4014H186.992V18.1104H185.207Z" fill="white"/>
<path d="M191.346 29.3994H193.131V24.1201C193.131 22.7505 193.945 21.8291 195.406 21.8291C196.667 21.8291 197.34 22.5596 197.34 24.0039V29.3994H199.124V23.564C199.124 21.4141 197.937 20.1938 196.012 20.1938C194.65 20.1938 193.696 20.7998 193.256 21.8125H193.115V16.832H191.346V29.3994Z" fill="white"/>
<path d="M205.562 21.7046C206.882 21.7046 207.745 22.626 207.787 24.0454H203.222C203.321 22.6343 204.243 21.7046 205.562 21.7046ZM207.779 26.959C207.447 27.6646 206.708 28.0547 205.629 28.0547C204.201 28.0547 203.28 27.0503 203.222 25.4648V25.3652H209.605V24.7427C209.605 21.9038 208.086 20.1855 205.571 20.1855C203.022 20.1855 201.404 22.02 201.404 24.9087C201.404 27.7974 202.989 29.5737 205.579 29.5737C207.646 29.5737 209.09 28.5776 209.497 26.959H207.779Z" fill="white"/>
<path d="M49.538 40.6021C49.5813 37.2401 51.3868 34.0589 54.2511 32.298C52.4442 29.7174 49.4176 28.0812 46.2688 27.9826C42.9103 27.6301 39.6544 29.9923 37.943 29.9923C36.1984 29.9923 33.5634 28.0176 30.726 28.076C27.0275 28.1955 23.5795 30.2983 21.7801 33.5318C17.9121 40.2286 20.7973 50.0707 24.5025 55.4839C26.3563 58.1346 28.5229 61.0955 31.3578 60.9905C34.1319 60.8755 35.168 59.2216 38.5166 59.2216C41.8341 59.2216 42.8062 60.9905 45.6986 60.9238C48.6754 60.8754 50.5509 58.2613 52.3396 55.5855C53.6716 53.6968 54.6965 51.6093 55.3765 49.4005C51.8782 47.9209 49.5421 44.4004 49.538 40.6021Z" fill="white"/>
<path d="M44.0747 24.4226C45.6977 22.4742 46.4973 19.9699 46.3037 17.4414C43.824 17.7018 41.5335 18.887 39.8885 20.7606C38.28 22.5913 37.4429 25.0516 37.6011 27.4834C40.0817 27.5089 42.5203 26.356 44.0747 24.4226Z" fill="white"/>
</svg>
