<svg width="111" height="100" viewBox="0 0 111 100" fill="none" xmlns="http://www.w3.org/2000/svg">
<g clip-path="url(#clip0_12_275)">
<mask id="mask0_12_275" style="mask-type:luminance" maskUnits="userSpaceOnUse" x="0" y="0" width="111" height="100">
<path d="M111 0H0V100H111V0Z" fill="white"/>
</mask>
<g mask="url(#mask0_12_275)">
<path d="M69.7674 22.7382C69.7674 22.8125 69.5666 22.9541 69.1651 23.1624C67.4258 24.0853 65.8945 25.4175 64.5714 27.1588C63.2482 28.9004 61.7392 31.5722 60.0444 35.1743C57.5764 40.4137 55.3688 44.1795 53.4212 46.4718C51.4885 48.764 49.095 50.4087 46.2405 51.4059C47.5638 51.5996 48.5821 51.6962 49.2957 51.6962C51.5852 51.6962 53.4138 51.2125 54.7816 50.2449C56.1642 49.2626 58.1118 47.0745 60.6243 43.6809C60.7877 43.4725 60.9142 43.3684 61.0033 43.3684C61.0627 43.3831 61.0925 43.4278 61.0925 43.5022C61.0925 43.6511 60.3937 44.6111 58.9962 46.3825C57.2865 48.5557 55.7554 50.0366 54.4025 50.8254C53.0644 51.6143 51.4143 52.0087 49.4518 52.0087C48.2328 52.0087 46.9171 51.8749 45.5046 51.6069C44.5086 51.9344 43.4902 52.0982 42.4495 52.0982C41.6615 52.0982 41.2676 51.9493 41.2676 51.6517C41.2676 51.2795 41.8176 51.0934 42.9179 51.0934C43.5273 51.0934 44.3301 51.1678 45.3263 51.3167H45.6162C47.1921 50.7511 48.5227 49.858 49.6079 48.6374C50.7081 47.402 52.0237 45.3256 53.555 42.4081C56.6622 36.499 59.1227 32.3165 60.9364 29.8604C62.6908 27.5087 64.7944 25.4992 67.2473 23.8322C68.4812 23.0135 69.2767 22.6042 69.6335 22.6042C69.7227 22.6042 69.7674 22.6489 69.7674 22.7382ZM80.4937 28.7889C80.4937 29.3694 80.4268 29.935 80.2929 30.4857C80.174 31.0215 80.0477 31.2894 79.9138 31.2894C79.8098 31.2894 79.7578 31.2447 79.7578 31.1555C79.7727 31.0958 79.7876 31.0364 79.8025 30.9767C80.0254 30.4559 80.1368 29.7562 80.1368 28.8781C80.1368 26.8984 79.3489 25.2238 77.7731 23.8545C76.1972 22.4702 74.2719 21.7781 71.9973 21.7781C68.3252 21.7781 64.5639 23.5791 60.7134 27.1813C59.197 28.5952 57.8888 29.9722 56.7885 31.3117C55.7331 32.5769 53.6666 35.2562 50.5892 39.3495C46.0398 45.3777 42.3083 49.1435 39.3945 50.6469C38.0861 51.3167 37.2462 51.6517 36.8744 51.6517C36.7853 51.6517 36.7406 51.5996 36.7406 51.4952C36.7555 51.4805 36.9116 51.3614 37.209 51.1382C38.6659 50.0515 39.8256 48.5928 40.6878 46.762C41.4906 45.0801 42.9328 41.0984 45.014 34.8171C46.7832 29.4586 48.8051 25.6183 51.0797 23.2964C51.1688 23.2069 51.2135 23.1326 51.2135 23.0731C51.0203 23.0135 50.5817 23.3336 49.8978 24.0332C47.6827 26.236 45.0809 30.1954 42.0926 35.9111C40.2493 39.4238 38.6288 42.0883 37.2313 43.9042C35.8486 45.7052 34.1985 47.2904 32.2806 48.6598C29.1289 50.9223 25.9623 52.0535 22.7808 52.0535C20.7143 52.0535 19.0269 51.6219 17.7186 50.7584C16.4252 49.8803 15.7785 48.7564 15.7785 47.3871C15.7785 46.6131 16.0015 45.9656 16.4475 45.4447C16.8935 44.9089 17.451 44.6409 18.12 44.6409C19.0863 44.6409 19.5695 45.1173 19.5695 46.0698C19.5695 46.561 19.4134 46.9853 19.1012 47.3425C18.789 47.6849 18.4099 47.856 17.9639 47.856C17.2354 47.856 16.8712 47.4541 16.8712 46.6503C16.8712 46.3527 16.8117 46.2038 16.6928 46.2038C16.4549 46.2038 16.336 46.6131 16.336 47.4318C16.336 48.6523 16.9381 49.657 18.1423 50.4459C19.3614 51.2199 20.9224 51.6069 22.8253 51.6069C26.7055 51.6069 30.5115 49.59 34.243 45.5562C35.7446 43.934 37.0156 42.356 38.0563 40.823C39.097 39.2749 41.1711 35.9185 44.2781 30.7535C45.5865 28.5656 47.0583 26.5783 48.6937 24.7922C50.3438 23.0061 51.5183 22.1131 52.2171 22.1131C52.3211 22.1131 52.3731 22.1576 52.3731 22.2469C52.3582 22.3065 52.3285 22.366 52.284 22.4256C50.9013 23.9439 49.6525 26.8091 48.5376 31.0215C46.8724 37.1986 45.3039 41.6938 43.8321 44.5069C42.3752 47.2457 40.5019 49.3221 38.2124 50.7362C38.153 50.7511 38.1232 50.7809 38.1232 50.8254C38.1381 50.8403 38.1679 50.8553 38.2124 50.8702C38.5543 50.8702 39.3869 50.3938 40.7102 49.4411C42.3158 48.3099 43.795 46.9555 45.1478 45.3777C46.5007 43.8 48.9538 40.57 52.507 35.6879C55.0195 32.2346 57.0115 29.7117 58.4833 28.1189C59.97 26.5115 61.6129 25.0974 63.4118 23.8769C66.2215 21.9865 69.0537 21.0413 71.9081 21.0413C74.4057 21.0413 76.4574 21.7708 78.063 23.2294C79.6835 24.6881 80.4937 26.5411 80.4937 28.7889ZM45.1478 27.5386C45.1478 27.866 44.7241 28.506 43.8768 29.4586C42.5982 30.9024 41.3643 31.6242 40.1749 31.6242C39.3572 31.6242 38.6659 31.3266 38.101 30.7312C37.5361 30.1209 37.2535 29.3767 37.2535 28.4986C37.2535 27.6501 37.5583 26.6304 38.1679 25.4397C38.9261 23.9513 39.3051 22.902 39.3051 22.2916C39.3051 21.5326 38.9485 20.9223 38.2348 20.4608C37.5212 19.9994 36.5845 19.7687 35.4249 19.7687C32.1096 19.7687 28.995 21.1083 26.0812 23.7875C23.1672 26.4668 21.7103 29.3171 21.7103 32.3388C21.7103 33.9016 22.1861 35.1817 23.1374 36.1789C24.1039 37.1614 25.3378 37.6527 26.8394 37.6527C28.1773 37.6527 29.5302 37.2729 30.8981 36.5139C32.2806 35.7399 33.3957 34.7501 34.243 33.5445C34.3026 33.47 34.3471 33.4328 34.3768 33.4328C34.4958 33.4328 34.5552 33.4998 34.5552 33.6338C34.5552 33.9314 34.0796 34.5046 33.128 35.3529C31.1656 37.1242 29.0397 38.0097 26.7502 38.0097C25.1446 38.0097 23.8362 37.4889 22.8253 36.4469C21.8144 35.405 21.3088 34.0505 21.3088 32.3835C21.3088 29.1535 22.7955 26.1839 25.7689 23.4749C28.7571 20.766 32.0204 19.4114 35.5587 19.4114C37.0156 19.4114 38.153 19.7761 38.9707 20.5056C39.8033 21.2348 40.2195 22.2395 40.2195 23.5197C40.2195 24.4722 39.7438 25.9234 38.7922 27.8733C38.4652 28.558 38.3018 29.1014 38.3018 29.5032C38.3018 30.6344 38.9112 31.2002 40.1304 31.2002C40.8587 31.2002 41.6691 30.8503 42.5611 30.1507C43.4679 29.4511 44.1965 28.5952 44.7465 27.5831C44.8208 27.4342 44.895 27.3598 44.9695 27.3598C45.0884 27.3598 45.1478 27.4195 45.1478 27.5386Z" fill="#1D2532"/>
<path d="M78.5552 50.4982C78.5552 50.8704 77.9756 51.7409 76.816 53.1105C75.6712 54.465 74.5116 55.6408 73.337 56.6382C72.2815 58.335 71.5084 59.7415 71.0178 60.8578C70.5273 61.9594 69.9177 63.7083 69.1891 66.1048C68.2823 69.0221 67.16 71.3368 65.8218 73.0485C64.4987 74.7602 62.633 76.2859 60.2245 77.6254C56.7754 79.5455 53.2447 80.5056 49.6319 80.5056C46.5694 80.5056 44.094 79.6722 42.206 78.005C40.3178 76.338 39.3738 74.1499 39.3738 71.4409C39.3738 69.1338 40.0875 66.9457 41.5146 64.8767C42.9419 62.7928 44.8895 61.1109 47.3573 59.8308C49.84 58.5507 52.137 57.9107 54.248 57.9107C54.4265 57.9107 54.5826 57.9256 54.7164 57.9555C54.7164 57.5833 54.8205 56.9284 55.0286 55.9906C54.7609 56.0205 54.4414 56.0352 54.0697 56.0352C51.6762 56.0352 49.7657 55.507 48.3386 54.4501C46.9262 53.3932 46.2201 51.9867 46.2201 50.2302C46.2201 47.1938 47.9371 44.4996 51.3714 42.1479C54.8056 39.796 58.7528 38.6203 63.2128 38.6203C66.7511 38.6203 69.6427 39.506 71.8875 41.2771C73.4486 40.6966 74.6007 40.4064 75.3442 40.4064C76.7862 40.4064 77.5072 41.0018 77.5072 42.1926C77.5072 43.294 76.6672 44.6634 74.9874 46.3008C75.1063 47.1193 75.1657 47.804 75.1657 48.3549C75.1657 49.9624 74.6974 51.6815 73.7608 53.5123C73.4782 54.063 73.2777 54.3384 73.1587 54.3384C73.0843 54.3384 73.0398 54.2938 73.0249 54.2044C73.0398 54.13 73.0694 54.0557 73.114 53.9811C74.2141 52.1652 74.7644 50.26 74.7644 48.2654C74.7644 47.6553 74.7346 47.0897 74.675 46.5686C72.1923 48.7567 69.4197 50.6694 66.3571 52.3068C63.3093 53.929 60.4029 55.0529 57.6378 55.6781C57.162 56.4521 56.7976 57.2559 56.5451 58.0893C60.4698 58.7592 62.4322 60.895 62.4322 64.4972V64.9437C65.3907 64.14 69.0257 61.2002 73.337 56.1246C74.3035 54.6064 75.2922 53.2668 76.3031 52.1058C77.314 50.9447 78.0052 50.3642 78.3769 50.3642C78.4661 50.3642 78.5256 50.4089 78.5552 50.4982ZM77.0834 42.2372C77.0834 41.2549 76.5185 40.7636 75.3887 40.7636C74.5265 40.7636 73.4931 41.0539 72.289 41.6344C73.5676 42.7358 74.4371 44.1499 74.898 45.8765C76.3551 44.4624 77.0834 43.2493 77.0834 42.2372ZM74.5858 46.1668C74.1994 44.3954 73.3148 42.9294 71.9322 41.7684C69.2709 43.093 66.6246 45.0207 63.9932 47.5511C61.3619 50.0666 59.3177 52.6342 57.8608 55.2539C60.5069 54.6286 63.3466 53.4974 66.3794 51.86C69.427 50.2079 72.1625 48.3101 74.5858 46.1668ZM71.4639 41.4111C69.4866 39.8483 66.766 39.0668 63.302 39.0668C59.1245 39.0668 55.2963 40.2278 51.8173 42.5497C48.3533 44.8569 46.6214 47.4022 46.6214 50.1857C46.6214 51.8974 47.3053 53.237 48.673 54.2044C50.0407 55.1571 51.9436 55.6334 54.3819 55.6334H55.1624C56.9019 49.9326 62.3355 45.1918 71.4639 41.4111ZM62.0532 65.0555C62.1572 63.2841 61.7186 61.8254 60.7375 60.6793C59.7563 59.5183 58.3439 58.7815 56.5004 58.469C56.2774 59.228 56.166 59.9871 56.166 60.7463C56.166 62.071 56.5895 63.1352 57.437 63.939C58.2992 64.7427 59.4291 65.1447 60.8266 65.1447C61.2577 65.1447 61.6666 65.1149 62.0532 65.0555ZM72.5565 57.5535C68.5573 62.004 65.1528 64.6087 62.3431 65.368C62.0458 67.4072 61.0867 69.2678 59.4664 70.9497C57.8608 72.6167 56.2327 73.4503 54.5826 73.4503C53.7055 73.4503 52.9696 73.1823 52.3749 72.6465C51.7951 72.1107 51.5052 71.4483 51.5052 70.6594C51.5052 69.8407 51.7802 69.104 52.3302 68.4491C52.8952 67.7942 53.5197 67.4666 54.2035 67.4666C55.2442 67.4666 55.7645 67.9429 55.7645 68.8956C55.7645 69.3272 55.5935 69.7143 55.2516 70.0567C54.9097 70.399 54.5306 70.5702 54.1142 70.5702C53.3263 70.5702 52.9323 70.2203 52.9323 69.5207C52.9323 69.4165 52.9621 69.2529 53.0217 69.0296C53.0512 68.9105 53.0661 68.7988 53.0661 68.6946C53.0661 68.6054 53.0217 68.5606 52.9323 68.5606C52.7093 68.5606 52.4863 68.8064 52.2633 69.2974C52.0403 69.7738 51.9289 70.2278 51.9289 70.6594C51.9289 71.359 52.1815 71.9396 52.6871 72.401C53.1926 72.8624 53.8245 73.093 54.5826 73.093C56.0991 73.093 57.6525 72.267 59.2434 70.6147C60.849 68.9626 61.7559 67.2433 61.964 65.4573C61.637 65.5167 61.2577 65.5465 60.8266 65.5465C58.9237 65.5465 57.4221 64.9066 56.3221 63.6264C55.2218 62.3314 54.6718 60.5825 54.6718 58.3795C50.9254 58.6177 47.6472 60.1807 44.8374 63.0682C42.0424 65.9409 40.6449 69.1783 40.6449 72.7805C40.6449 74.9388 41.4403 76.6877 43.0311 78.0274C44.6367 79.367 46.733 80.0368 49.3197 80.0368C52.8283 80.0368 56.0173 78.7938 58.8866 76.3081C61.7559 73.8225 65.0859 69.4165 68.877 63.0907C70.0366 61.1258 71.2632 59.2801 72.5565 57.5535Z" fill="#1D2532"/>
</g>
</g>
<defs>
<clipPath id="clip0_12_275">
<rect width="111" height="100" fill="white"/>
</clipPath>
</defs>
</svg>
