<svg width="272" height="80" viewBox="0 0 272 80" fill="none" xmlns="http://www.w3.org/2000/svg">
<rect x="0.5" y="0.5" width="271" height="79" rx="4.5" fill="black"/>
<rect x="0.5" y="0.5" width="271" height="79" rx="4.5" stroke="#A6A6A6"/>
<path d="M215.453 60H219.213V34.9968H215.453V60ZM249.316 44.004L245.007 54.8438H244.878L240.405 44.004H236.355L243.064 59.154L239.238 67.582H243.159L253.497 44.004H249.316ZM227.994 57.1602C226.765 57.1602 225.046 56.5484 225.046 55.0368C225.046 53.107 227.186 52.3672 229.031 52.3672C230.683 52.3672 231.463 52.7204 232.467 53.2032C232.174 55.5196 230.166 57.1602 227.994 57.1602V57.1602ZM228.449 43.457C225.727 43.457 222.908 44.6476 221.742 47.2852L225.078 48.668C225.791 47.2852 227.119 46.8352 228.513 46.8352C230.458 46.8352 232.434 47.9922 232.467 50.0516V50.3086C231.785 49.9226 230.327 49.3438 228.546 49.3438C224.947 49.3438 221.286 51.3054 221.286 54.9726C221.286 58.318 224.236 60.4734 227.54 60.4734C230.067 60.4734 231.463 59.3476 232.336 58.0282H232.467V59.9594H236.097V50.3726C236.097 45.9336 232.757 43.457 228.449 43.457V43.457ZM205.214 47.0476H199.867V38.4774H205.214C208.025 38.4774 209.621 40.7868 209.621 42.7624C209.621 44.7 208.025 47.0476 205.214 47.0476V47.0476ZM205.117 34.9968H196.109V60H199.867V50.5274H205.117C209.284 50.5274 213.38 47.5336 213.38 42.7624C213.38 37.9922 209.284 34.9968 205.117 34.9968ZM155.993 57.1648C153.396 57.1648 151.222 55.0054 151.222 52.0422C151.222 49.0446 153.396 46.8546 155.993 46.8546C158.558 46.8546 160.57 49.0446 160.57 52.0422C160.57 55.0054 158.558 57.1648 155.993 57.1648V57.1648ZM160.31 45.404H160.18C159.337 44.4054 157.713 43.5032 155.669 43.5032C151.384 43.5032 147.456 47.2414 147.456 52.0422C147.456 56.8102 151.384 60.5156 155.669 60.5156C157.713 60.5156 159.337 59.6132 160.18 58.5828H160.31V59.8062C160.31 63.0617 158.558 64.8008 155.734 64.8008C153.43 64.8008 152.002 63.1578 151.417 61.7727L148.139 63.1258C149.079 65.3805 151.578 68.1523 155.734 68.1523C160.149 68.1523 163.882 65.5742 163.882 59.2906V44.0188H160.31V45.404ZM166.479 60H170.243V34.9968H166.479V60ZM175.794 51.7516C175.697 48.4648 178.359 46.7898 180.274 46.7898C181.767 46.7898 183.032 47.5312 183.456 48.5938L175.794 51.7516ZM187.479 48.9156C186.765 47.0156 184.59 43.5032 180.144 43.5032C175.728 43.5032 172.061 46.9508 172.061 52.0094C172.061 56.7782 175.697 60.5156 180.565 60.5156C184.492 60.5156 186.765 58.132 187.707 56.746L184.786 54.8124C183.811 56.2304 182.481 57.1648 180.565 57.1648C178.651 57.1648 177.287 56.2946 176.412 54.5868L187.868 49.8828L187.479 48.9156ZM96.1921 46.1132V49.7218H104.891C104.631 51.7516 103.95 53.2336 102.911 54.2648C101.645 55.521 99.6644 56.907 96.1921 56.907C90.8361 56.907 86.6491 52.6218 86.6491 47.3054C86.6491 41.989 90.8361 37.7032 96.1921 37.7032C99.0811 37.7032 101.19 38.8312 102.749 40.2812L105.314 37.7352C103.138 35.6734 100.25 34.0946 96.1921 34.0946C88.8551 34.0946 82.688 40.0234 82.688 47.3054C82.688 54.5868 88.8551 60.5156 96.1921 60.5156C100.152 60.5156 103.138 59.2266 105.475 56.8102C107.877 54.4258 108.624 51.075 108.624 48.368C108.624 47.5312 108.559 46.7578 108.429 46.1132H96.1921ZM118.514 57.1648C115.917 57.1648 113.677 55.0382 113.677 52.0094C113.677 48.9484 115.917 46.8546 118.514 46.8546C121.11 46.8546 123.35 48.9484 123.35 52.0094C123.35 55.0382 121.11 57.1648 118.514 57.1648V57.1648ZM118.514 43.5032C113.774 43.5032 109.912 47.0796 109.912 52.0094C109.912 56.907 113.774 60.5156 118.514 60.5156C123.253 60.5156 127.115 56.907 127.115 52.0094C127.115 47.0796 123.253 43.5032 118.514 43.5032ZM137.278 57.1648C134.682 57.1648 132.441 55.0382 132.441 52.0094C132.441 48.9484 134.682 46.8546 137.278 46.8546C139.875 46.8546 142.114 48.9484 142.114 52.0094C142.114 55.0382 139.875 57.1648 137.278 57.1648ZM137.278 43.5032C132.539 43.5032 128.677 47.0796 128.677 52.0094C128.677 56.907 132.539 60.5156 137.278 60.5156C142.018 60.5156 145.88 56.907 145.88 52.0094C145.88 47.0796 142.018 43.5032 137.278 43.5032Z" fill="white"/>
<path d="M89.6132 26.4687C87.8069 26.4687 86.2531 25.8378 85.0004 24.5945C83.7471 23.3504 83.1123 21.7926 83.1123 19.9812C83.1123 18.1699 83.7474 16.6149 85.0004 15.368C86.2531 14.1245 87.8069 13.4937 89.6132 13.4937C90.5335 13.4937 91.3924 13.6515 92.2132 13.9801C93.0343 14.3086 93.7061 14.7648 94.2351 15.3617L94.3598 15.5027L92.9507 16.9012L92.8098 16.7293C92.459 16.3014 92.0128 15.969 91.4474 15.7273C90.8841 15.4863 90.2671 15.375 89.6132 15.375C88.3409 15.375 87.2852 15.8039 86.4037 16.6758C86.4035 16.676 86.4031 16.676 86.4029 16.6762C85.5414 17.5657 85.1082 18.6486 85.1082 19.9812C85.1082 21.3149 85.5419 22.3981 86.4045 23.2879C87.286 24.1594 88.3416 24.5906 89.6132 24.5906C90.7779 24.5906 91.7412 24.2679 92.4985 23.6289H92.4989C93.2039 23.0342 93.627 22.2306 93.7766 21.2062H89.4117V19.3625H95.6632L95.6899 19.5312C95.7411 19.8554 95.7773 20.1682 95.7773 20.4687C95.7773 22.1891 95.2489 23.5934 94.2123 24.6266C93.0421 25.858 91.5031 26.4688 89.6132 26.4688L89.6132 26.4687ZM143.896 26.4687C142.087 26.4687 140.551 25.8375 139.315 24.5945C139.314 24.5944 139.314 24.5943 139.314 24.5941C139.314 24.594 139.314 24.5939 139.314 24.5937C138.076 23.3641 137.461 21.806 137.461 19.9812C137.461 18.1564 138.076 16.5983 139.314 15.3687C139.314 15.3686 139.314 15.3685 139.314 15.3683L139.315 15.3679C140.551 14.1247 142.087 13.4937 143.896 13.4937C145.702 13.4937 147.238 14.1249 148.474 15.3867C149.713 16.6161 150.328 18.1712 150.328 19.9812C150.328 21.806 149.713 23.3641 148.475 24.5937L148.475 24.5941C147.237 25.838 145.687 26.4687 143.896 26.4687L143.896 26.4687ZM97.5662 26.2V13.7625H97.7677H105.049V15.6437H99.5275V19.0594H104.508V20.9031H99.5275V24.3219H105.049V26.2H97.5662ZM109.629 26.2V15.6437H106.242V13.7625H114.978V15.6437H114.776H111.59V26.2H109.629ZM120.561 26.2V13.7625H122.522V13.9625V26.2H120.561ZM127.459 26.2V15.6437H124.072V13.7625H132.808V15.6437H132.607H129.421V26.2H127.459ZM152.069 26.2V13.7625H154.28L159.909 22.707L159.86 21.009V13.7625H161.822V26.2H159.881L153.981 16.8035L154.03 18.5004V18.5031V26.2H152.069ZM143.896 24.5906C145.168 24.5906 146.207 24.1599 147.054 23.2894L147.055 23.2878L147.056 23.2866C147.915 22.434 148.335 21.3364 148.335 19.9812C148.335 18.6292 147.915 17.5279 147.056 16.6757L147.055 16.6745L147.054 16.6733C146.207 15.803 145.169 15.3749 143.896 15.3749C142.621 15.3749 141.583 15.8023 140.72 16.6725L140.719 16.6733C139.877 17.5462 139.457 18.6296 139.457 19.9811C139.457 21.336 139.876 22.4159 140.719 23.2889L140.72 23.2897C141.583 24.1601 142.622 24.5905 143.896 24.5905V24.5906Z" fill="white"/>
<path d="M41.7359 38.8464L20.2852 61.4465C20.286 61.4512 20.2876 61.4551 20.2884 61.4598C20.9462 63.9137 23.2042 65.7207 25.8841 65.7207C26.9554 65.7207 27.9612 65.4332 28.8237 64.9285L28.8922 64.8887L53.0378 51.0582L41.7359 38.8464" fill="#EA4335"/>
<path d="M63.4377 34.9988L63.4172 34.9848L52.9929 28.9862L41.2488 39.3598L53.0338 51.0566L63.4031 45.1176C65.221 44.1434 66.4551 42.241 66.4551 40.0472C66.4551 37.8692 65.2376 35.9762 63.4377 34.9988" fill="#FBBC04"/>
<path d="M20.2844 18.5534C20.1554 19.0254 20.0876 19.5198 20.0876 20.0332V59.9684C20.0876 60.4809 20.1546 60.9769 20.2852 61.4473L42.4741 39.4254L20.2844 18.5534Z" fill="#4285F4"/>
<path d="M41.8941 40L52.997 28.982L28.8788 15.1016C28.0022 14.5804 26.979 14.2796 25.8842 14.2796C23.2043 14.2796 20.9433 16.0898 20.2852 18.5468C20.2844 18.5492 20.2844 18.5508 20.2844 18.553L41.8941 40Z" fill="#34A853"/>
</svg>
