<svg width="108" height="109" viewBox="0 0 108 109" fill="none" xmlns="http://www.w3.org/2000/svg">
<path d="M14.5728 56.546L13.0728 56.546L13.0728 53.546L14.5728 53.546L14.5728 56.546ZM92.3363 53.546C93.1647 53.546 93.8363 54.2176 93.8363 55.046C93.8363 55.8745 93.1647 56.546 92.3363 56.546L92.3363 53.546ZM63.9272 84.9551L63.9272 86.4551L60.9272 86.4551L60.9272 84.9551L63.9272 84.9551ZM91.3174 54.0298C92.0447 53.6331 92.9558 53.9011 93.3525 54.6284C93.7492 55.3557 93.4812 56.2668 92.7539 56.6635L91.3174 54.0298ZM60.927 25.4376L60.927 23.9376L63.927 23.9376L63.927 25.4376L60.927 25.4376ZM14.5728 53.546L92.0354 53.546L92.0354 56.546L14.5728 56.546L14.5728 53.546ZM92.0354 53.546L92.3363 53.546L92.3363 56.546L92.0354 56.546L92.0354 53.546ZM60.9272 84.9551C60.9272 81.0692 63.0426 77.1986 65.8907 73.7032C68.7687 70.1711 72.5694 66.8105 76.3143 63.9168C80.068 61.0162 83.8143 58.5476 86.6178 56.8061C88.021 55.9344 89.1914 55.2428 90.0129 54.7681C90.4237 54.5307 90.7474 54.3474 90.9697 54.2228C91.0808 54.1606 91.1665 54.1129 91.2251 54.0806C91.2543 54.0644 91.2768 54.052 91.2923 54.0435C91.3 54.0393 91.306 54.036 91.3102 54.0337C91.3123 54.0326 91.3139 54.0317 91.3151 54.031C91.3157 54.0307 91.3163 54.0304 91.3166 54.0302C91.3171 54.03 91.3174 54.0298 92.0357 55.3466C92.7539 56.6635 92.754 56.6634 92.754 56.6634C92.7539 56.6635 92.7538 56.6636 92.7535 56.6637C92.7529 56.6641 92.7518 56.6646 92.7503 56.6654C92.7474 56.6671 92.7426 56.6697 92.7361 56.6732C92.7231 56.6804 92.7031 56.6914 92.6764 56.7062C92.6229 56.7357 92.5424 56.7804 92.4366 56.8397C92.2251 56.9583 91.9128 57.1351 91.514 57.3656C90.7162 57.8266 89.5735 58.5018 88.2008 59.3544C85.4528 61.0615 81.797 63.4715 78.1486 66.2906C74.4914 69.1166 70.89 72.317 68.2164 75.5982C65.5129 78.9162 63.9272 82.1114 63.9272 84.9551L60.9272 84.9551ZM92.0354 55.046C91.4735 56.4368 91.473 56.4366 91.4724 56.4364C91.4721 56.4362 91.4714 56.436 91.4707 56.4357C91.4694 56.4351 91.4675 56.4344 91.4653 56.4335C91.4607 56.4316 91.4544 56.4291 91.4464 56.4258C91.4302 56.4192 91.4071 56.4097 91.3771 56.3973C91.3172 56.3725 91.23 56.3361 91.1174 56.2884C90.8923 56.193 90.5655 56.052 90.1515 55.8671C89.3236 55.4974 88.1459 54.9512 86.7346 54.2408C83.916 52.822 80.1475 50.7387 76.3693 48.0863C72.599 45.4394 68.7667 42.1895 65.865 38.4233C62.9618 34.6549 60.927 30.2844 60.927 25.4376L63.927 25.4376C63.927 29.4132 65.5932 33.1549 68.2415 36.5924C70.8915 40.0319 74.4613 43.0814 78.0931 45.6309C81.717 48.1751 85.3506 50.1855 88.0835 51.5612C89.4481 52.2481 90.5835 52.7745 91.3749 53.1279C91.7705 53.3046 92.0797 53.4379 92.2884 53.5263C92.3927 53.5705 92.4718 53.6035 92.5239 53.6251C92.5499 53.6359 92.5692 53.6438 92.5815 53.6488C92.5877 53.6513 92.5921 53.6531 92.5948 53.6542C92.5961 53.6548 92.597 53.6551 92.5974 53.6553C92.5976 53.6554 92.5976 53.6554 92.5977 53.6554C92.5976 53.6554 92.5974 53.6553 92.0354 55.046Z" fill="#2E4240"/>
</svg>
